<mxfile host="app.diagrams.net" modified="2020-11-20T05:48:56.381Z" agent="5.0 (Windows NT 10.0; Win64; x64) AppleWebKit/537.36 (KHTML, like Gecko) Chrome/86.0.4240.198 Safari/537.36" etag="WtVL35GMzrrDd5Jzvp_c" version="13.10.0" type="github">
  <diagram id="bYXxaOFsRR4BDThtULjM" name="Page-1">
    <mxGraphModel dx="1038" dy="548" grid="1" gridSize="10" guides="1" tooltips="1" connect="1" arrows="1" fold="1" page="1" pageScale="1" pageWidth="827" pageHeight="1169" math="0" shadow="0">
      <root>
        <mxCell id="0" />
        <mxCell id="1" parent="0" />
        <mxCell id="apvG2dVuzCdvmDr9frj6-3" style="edgeStyle=orthogonalEdgeStyle;rounded=0;orthogonalLoop=1;jettySize=auto;html=1;entryX=0;entryY=0.5;entryDx=0;entryDy=0;" parent="1" source="apvG2dVuzCdvmDr9frj6-1" target="apvG2dVuzCdvmDr9frj6-2" edge="1">
          <mxGeometry relative="1" as="geometry" />
        </mxCell>
        <mxCell id="apvG2dVuzCdvmDr9frj6-10" style="edgeStyle=orthogonalEdgeStyle;rounded=0;orthogonalLoop=1;jettySize=auto;html=1;exitX=1;exitY=0.5;exitDx=0;exitDy=0;entryX=0;entryY=0.5;entryDx=0;entryDy=0;" parent="1" source="apvG2dVuzCdvmDr9frj6-1" target="apvG2dVuzCdvmDr9frj6-7" edge="1">
          <mxGeometry relative="1" as="geometry" />
        </mxCell>
        <mxCell id="apvG2dVuzCdvmDr9frj6-11" style="edgeStyle=orthogonalEdgeStyle;rounded=0;orthogonalLoop=1;jettySize=auto;html=1;exitX=1;exitY=0.5;exitDx=0;exitDy=0;entryX=0;entryY=0.5;entryDx=0;entryDy=0;" parent="1" source="apvG2dVuzCdvmDr9frj6-1" target="apvG2dVuzCdvmDr9frj6-9" edge="1">
          <mxGeometry relative="1" as="geometry" />
        </mxCell>
        <mxCell id="apvG2dVuzCdvmDr9frj6-12" style="edgeStyle=orthogonalEdgeStyle;rounded=0;orthogonalLoop=1;jettySize=auto;html=1;exitX=1;exitY=0.5;exitDx=0;exitDy=0;entryX=0;entryY=0.5;entryDx=0;entryDy=0;" parent="1" source="apvG2dVuzCdvmDr9frj6-1" target="apvG2dVuzCdvmDr9frj6-8" edge="1">
          <mxGeometry relative="1" as="geometry" />
        </mxCell>
        <mxCell id="apvG2dVuzCdvmDr9frj6-18" style="edgeStyle=orthogonalEdgeStyle;rounded=0;orthogonalLoop=1;jettySize=auto;html=1;exitX=1;exitY=0.5;exitDx=0;exitDy=0;entryX=0;entryY=0.5;entryDx=0;entryDy=0;" parent="1" source="apvG2dVuzCdvmDr9frj6-1" target="apvG2dVuzCdvmDr9frj6-17" edge="1">
          <mxGeometry relative="1" as="geometry" />
        </mxCell>
        <mxCell id="apvG2dVuzCdvmDr9frj6-1" value="yizhuang_ai_water_pleant" style="rounded=0;whiteSpace=wrap;html=1;" parent="1" vertex="1">
          <mxGeometry x="40" y="260" width="160" height="60" as="geometry" />
        </mxCell>
        <mxCell id="apvG2dVuzCdvmDr9frj6-5" style="edgeStyle=orthogonalEdgeStyle;rounded=0;orthogonalLoop=1;jettySize=auto;html=1;exitX=1;exitY=0.5;exitDx=0;exitDy=0;entryX=0;entryY=0.5;entryDx=0;entryDy=0;" parent="1" source="apvG2dVuzCdvmDr9frj6-2" target="apvG2dVuzCdvmDr9frj6-4" edge="1">
          <mxGeometry relative="1" as="geometry" />
        </mxCell>
        <mxCell id="apvG2dVuzCdvmDr9frj6-2" value="sqlbase" style="rounded=0;whiteSpace=wrap;html=1;" parent="1" vertex="1">
          <mxGeometry x="260" y="85" width="110" height="40" as="geometry" />
        </mxCell>
        <mxCell id="apvG2dVuzCdvmDr9frj6-4" value="sqlbase.py&lt;br&gt;数据库模块&lt;br&gt;对原有库的包装" style="rounded=0;whiteSpace=wrap;html=1;" parent="1" vertex="1">
          <mxGeometry x="440" y="80" width="110" height="50" as="geometry" />
        </mxCell>
        <mxCell id="apvG2dVuzCdvmDr9frj6-19" style="edgeStyle=orthogonalEdgeStyle;rounded=0;orthogonalLoop=1;jettySize=auto;html=1;exitX=1;exitY=0.5;exitDx=0;exitDy=0;entryX=0;entryY=0.5;entryDx=0;entryDy=0;" parent="1" source="apvG2dVuzCdvmDr9frj6-7" target="apvG2dVuzCdvmDr9frj6-14" edge="1">
          <mxGeometry relative="1" as="geometry" />
        </mxCell>
        <mxCell id="apvG2dVuzCdvmDr9frj6-20" style="edgeStyle=orthogonalEdgeStyle;rounded=0;orthogonalLoop=1;jettySize=auto;html=1;exitX=1;exitY=0.5;exitDx=0;exitDy=0;entryX=0;entryY=0.5;entryDx=0;entryDy=0;" parent="1" source="apvG2dVuzCdvmDr9frj6-7" target="apvG2dVuzCdvmDr9frj6-15" edge="1">
          <mxGeometry relative="1" as="geometry" />
        </mxCell>
        <mxCell id="apvG2dVuzCdvmDr9frj6-21" style="edgeStyle=orthogonalEdgeStyle;rounded=0;orthogonalLoop=1;jettySize=auto;html=1;exitX=1;exitY=0.5;exitDx=0;exitDy=0;entryX=0;entryY=0.5;entryDx=0;entryDy=0;" parent="1" source="apvG2dVuzCdvmDr9frj6-7" target="apvG2dVuzCdvmDr9frj6-16" edge="1">
          <mxGeometry relative="1" as="geometry" />
        </mxCell>
        <mxCell id="apvG2dVuzCdvmDr9frj6-7" value="model" style="rounded=0;whiteSpace=wrap;html=1;" parent="1" vertex="1">
          <mxGeometry x="260" y="230" width="110" height="40" as="geometry" />
        </mxCell>
        <mxCell id="apvG2dVuzCdvmDr9frj6-8" value="src" style="rounded=0;whiteSpace=wrap;html=1;" parent="1" vertex="1">
          <mxGeometry x="260" y="565" width="110" height="40" as="geometry" />
        </mxCell>
        <mxCell id="apvG2dVuzCdvmDr9frj6-32" style="edgeStyle=orthogonalEdgeStyle;rounded=0;orthogonalLoop=1;jettySize=auto;html=1;exitX=1;exitY=0.5;exitDx=0;exitDy=0;entryX=0;entryY=0.5;entryDx=0;entryDy=0;" parent="1" source="apvG2dVuzCdvmDr9frj6-9" target="apvG2dVuzCdvmDr9frj6-30" edge="1">
          <mxGeometry relative="1" as="geometry" />
        </mxCell>
        <mxCell id="apvG2dVuzCdvmDr9frj6-9" value="trainer" style="rounded=0;whiteSpace=wrap;html=1;" parent="1" vertex="1">
          <mxGeometry x="260" y="360" width="110" height="40" as="geometry" />
        </mxCell>
        <mxCell id="apvG2dVuzCdvmDr9frj6-26" style="edgeStyle=orthogonalEdgeStyle;rounded=0;orthogonalLoop=1;jettySize=auto;html=1;exitX=1;exitY=0.5;exitDx=0;exitDy=0;entryX=0;entryY=0.5;entryDx=0;entryDy=0;" parent="1" source="apvG2dVuzCdvmDr9frj6-14" target="apvG2dVuzCdvmDr9frj6-22" edge="1">
          <mxGeometry relative="1" as="geometry" />
        </mxCell>
        <mxCell id="apvG2dVuzCdvmDr9frj6-27" style="edgeStyle=orthogonalEdgeStyle;rounded=0;orthogonalLoop=1;jettySize=auto;html=1;exitX=1;exitY=0.5;exitDx=0;exitDy=0;entryX=0;entryY=0.5;entryDx=0;entryDy=0;" parent="1" source="apvG2dVuzCdvmDr9frj6-14" target="apvG2dVuzCdvmDr9frj6-23" edge="1">
          <mxGeometry relative="1" as="geometry" />
        </mxCell>
        <mxCell id="apvG2dVuzCdvmDr9frj6-14" value="ml_model" style="rounded=0;whiteSpace=wrap;html=1;" parent="1" vertex="1">
          <mxGeometry x="440" y="150" width="110" height="40" as="geometry" />
        </mxCell>
        <mxCell id="apvG2dVuzCdvmDr9frj6-28" style="edgeStyle=orthogonalEdgeStyle;rounded=0;orthogonalLoop=1;jettySize=auto;html=1;exitX=1;exitY=0.75;exitDx=0;exitDy=0;entryX=0;entryY=0.5;entryDx=0;entryDy=0;" parent="1" source="apvG2dVuzCdvmDr9frj6-16" target="apvG2dVuzCdvmDr9frj6-24" edge="1">
          <mxGeometry relative="1" as="geometry">
            <Array as="points">
              <mxPoint x="550" y="310" />
              <mxPoint x="570" y="310" />
              <mxPoint x="570" y="280" />
            </Array>
          </mxGeometry>
        </mxCell>
        <mxCell id="apvG2dVuzCdvmDr9frj6-29" style="edgeStyle=orthogonalEdgeStyle;rounded=0;orthogonalLoop=1;jettySize=auto;html=1;exitX=1;exitY=0.5;exitDx=0;exitDy=0;entryX=0;entryY=0.5;entryDx=0;entryDy=0;" parent="1" source="apvG2dVuzCdvmDr9frj6-16" target="apvG2dVuzCdvmDr9frj6-25" edge="1">
          <mxGeometry relative="1" as="geometry">
            <Array as="points">
              <mxPoint x="570" y="310" />
              <mxPoint x="570" y="340" />
            </Array>
          </mxGeometry>
        </mxCell>
        <mxCell id="apvG2dVuzCdvmDr9frj6-15" value="pid_model" style="rounded=0;whiteSpace=wrap;html=1;" parent="1" vertex="1">
          <mxGeometry x="440" y="220" width="110" height="40" as="geometry" />
        </mxCell>
        <mxCell id="apvG2dVuzCdvmDr9frj6-16" value="nn_model" style="rounded=0;whiteSpace=wrap;html=1;" parent="1" vertex="1">
          <mxGeometry x="440" y="290" width="110" height="40" as="geometry" />
        </mxCell>
        <mxCell id="apvG2dVuzCdvmDr9frj6-33" style="edgeStyle=orthogonalEdgeStyle;rounded=0;orthogonalLoop=1;jettySize=auto;html=1;exitX=1;exitY=0.5;exitDx=0;exitDy=0;" parent="1" source="apvG2dVuzCdvmDr9frj6-17" target="apvG2dVuzCdvmDr9frj6-31" edge="1">
          <mxGeometry relative="1" as="geometry" />
        </mxCell>
        <mxCell id="apvG2dVuzCdvmDr9frj6-17" value="server" style="rounded=0;whiteSpace=wrap;html=1;" parent="1" vertex="1">
          <mxGeometry x="260" y="430" width="110" height="40" as="geometry" />
        </mxCell>
        <mxCell id="apvG2dVuzCdvmDr9frj6-22" value="random_forest.py&lt;br&gt;随机森林模型" style="rounded=0;whiteSpace=wrap;html=1;" parent="1" vertex="1">
          <mxGeometry x="590" y="120" width="110" height="40" as="geometry" />
        </mxCell>
        <mxCell id="apvG2dVuzCdvmDr9frj6-23" value="svm.py&lt;br&gt;SVM模型" style="rounded=0;whiteSpace=wrap;html=1;" parent="1" vertex="1">
          <mxGeometry x="590" y="180" width="110" height="40" as="geometry" />
        </mxCell>
        <mxCell id="apvG2dVuzCdvmDr9frj6-24" value="ann.py&lt;br&gt;ANN模型" style="rounded=0;whiteSpace=wrap;html=1;" parent="1" vertex="1">
          <mxGeometry x="590" y="260" width="110" height="40" as="geometry" />
        </mxCell>
        <mxCell id="apvG2dVuzCdvmDr9frj6-25" value="rnn.py&lt;br&gt;RNN模型" style="rounded=0;whiteSpace=wrap;html=1;" parent="1" vertex="1">
          <mxGeometry x="590" y="320" width="110" height="40" as="geometry" />
        </mxCell>
        <mxCell id="apvG2dVuzCdvmDr9frj6-30" value="trainer.py" style="rounded=0;whiteSpace=wrap;html=1;" parent="1" vertex="1">
          <mxGeometry x="440" y="360" width="110" height="40" as="geometry" />
        </mxCell>
        <mxCell id="apvG2dVuzCdvmDr9frj6-31" value="server.py" style="rounded=0;whiteSpace=wrap;html=1;" parent="1" vertex="1">
          <mxGeometry x="440" y="430" width="110" height="40" as="geometry" />
        </mxCell>
        <mxCell id="grRgKZdotAqNAKDquzJP-3" style="edgeStyle=orthogonalEdgeStyle;rounded=0;orthogonalLoop=1;jettySize=auto;html=1;exitX=1;exitY=0.5;exitDx=0;exitDy=0;entryX=0;entryY=0.5;entryDx=0;entryDy=0;" edge="1" parent="1" target="grRgKZdotAqNAKDquzJP-5" source="apvG2dVuzCdvmDr9frj6-1">
          <mxGeometry relative="1" as="geometry">
            <mxPoint x="200" y="360" as="sourcePoint" />
          </mxGeometry>
        </mxCell>
        <mxCell id="grRgKZdotAqNAKDquzJP-4" style="edgeStyle=orthogonalEdgeStyle;rounded=0;orthogonalLoop=1;jettySize=auto;html=1;exitX=1;exitY=0.5;exitDx=0;exitDy=0;" edge="1" parent="1" source="grRgKZdotAqNAKDquzJP-5" target="grRgKZdotAqNAKDquzJP-6">
          <mxGeometry relative="1" as="geometry" />
        </mxCell>
        <mxCell id="grRgKZdotAqNAKDquzJP-5" value="monitor" style="rounded=0;whiteSpace=wrap;html=1;" vertex="1" parent="1">
          <mxGeometry x="260" y="500" width="110" height="40" as="geometry" />
        </mxCell>
        <mxCell id="grRgKZdotAqNAKDquzJP-6" value="monitor.py" style="rounded=0;whiteSpace=wrap;html=1;" vertex="1" parent="1">
          <mxGeometry x="440" y="500" width="110" height="40" as="geometry" />
        </mxCell>
      </root>
    </mxGraphModel>
  </diagram>
</mxfile>
